<svg aria-hidden="true" style="position: absolute; width: 0; height: 0; overflow: hidden;"
    version="1.1"
    xmlns="http://www.w3.org/2000/svg" xmlns:xlink="http://www.w3.org/1999/xlink">
    <defs>
        <symbol id="icon-save-icon" viewBox="0 0 32 32">
            <path stroke-linejoin="round" stroke-linecap="round" stroke-miterlimit="4"
                stroke-width="1.3333"
                d="M15.996 4.667c1.685 0 3.231 0.161 4.457 0.348 1.552 0.236 2.768 1.299 3.115 2.785 0.418 1.794 0.828 4.522 0.758 8.187-0.078 4.044-0.668 6.962-1.237 8.866-0.154 0.515-0.51 0.78-0.913 0.848-0.421 0.071-0.941-0.069-1.363-0.49-0.769-0.766-1.65-1.593-2.462-2.232-0.405-0.319-0.809-0.604-1.184-0.811-0.353-0.196-0.767-0.374-1.171-0.374-0.397 0-0.825 0.175-1.199 0.367-0.399 0.205-0.84 0.486-1.292 0.805-0.905 0.639-1.907 1.466-2.789 2.233-0.466 0.405-1.014 0.5-1.447 0.383-0.417-0.114-0.769-0.434-0.878-0.992-0.372-1.917-0.725-4.749-0.725-8.59 0-3.831 0.395-6.534 0.788-8.273 0.326-1.442 1.502-2.468 3.014-2.702 1.236-0.191 2.81-0.358 4.527-0.358z">
            </path>
        </symbol>
        <symbol id="icon-checkbox-privacy-mobile" viewBox="0 0 40 32">
            <path stroke-linejoin="round" stroke-linecap="round" stroke-miterlimit="4"
                stroke-width="4" d="M2 13.882l13.333 14.118 22.667-24"></path>
        </symbol>
        <symbol id="icon-checkbox-privacy-tablet" viewBox="0 0 51 32">
            <path stroke-linejoin="round" stroke-linecap="round" stroke-miterlimit="4"
                stroke-width="3.2" d="M4 13.459l16 16.941 27.2-28.8"></path>
        </symbol>
        <symbol id="icon-checkbox-privacy-desk" viewBox="0 0 46 32">
            <path stroke-linejoin="round" stroke-linecap="round" stroke-miterlimit="4"
                stroke-width="2.2857" d="M2.286 13.58l15.238 16.134 25.905-27.429"></path>
        </symbol>
        <symbol id="icon-camera" viewBox="0 0 24 24">
            <path d="M24 19v-11c0-0.828-0.337-1.58-0.879-2.121s-1.293-0.879-2.121-0.879h-3.465l-1.703-2.555c-0.182-0.27-0.486-0.445-0.832-0.445h-6c-0.326 0.002-0.64 0.158-0.832 0.445l-1.703 2.555h-3.465c-0.828 0-1.58 0.337-2.121 0.879s-0.879 1.293-0.879 2.121v11c0 0.828 0.337 1.58 0.879 2.121s1.293 0.879 2.121 0.879h18c0.828 0 1.58-0.337 2.121-0.879s0.879-1.293 0.879-2.121zM22 19c0 0.276-0.111 0.525-0.293 0.707s-0.431 0.293-0.707 0.293h-18c-0.276 0-0.525-0.111-0.707-0.293s-0.293-0.431-0.293-0.707v-11c0-0.276 0.111-0.525 0.293-0.707s0.431-0.293 0.707-0.293h4c0.346 0 0.65-0.175 0.832-0.445l1.703-2.555h4.93l1.703 2.555c0.192 0.287 0.506 0.443 0.832 0.445h4c0.276 0 0.525 0.111 0.707 0.293s0.293 0.431 0.293 0.707zM17 13c0-1.38-0.561-2.632-1.464-3.536s-2.156-1.464-3.536-1.464-2.632 0.561-3.536 1.464-1.464 2.156-1.464 3.536 0.561 2.632 1.464 3.536 2.156 1.464 3.536 1.464 2.632-0.561 3.536-1.464 1.464-2.156 1.464-3.536zM15 13c0 0.829-0.335 1.577-0.879 2.121s-1.292 0.879-2.121 0.879-1.577-0.335-2.121-0.879-0.879-1.292-0.879-2.121 0.335-1.577 0.879-2.121 1.292-0.879 2.121-0.879 1.577 0.335 2.121 0.879 0.879 1.292 0.879 2.121z">
            </path>
</symbol>
<symbol id="icon-trash" viewBox="0 0 32 32">
<path d="M29.98 6.819c-0.096-1.57-1.387-2.816-2.98-2.816h-3v-1.002c0-1.657-1.344-3-3-3h-10c-1.657 0-3 1.343-3 3v1.001h-3c-1.595 0-2.885 1.246-2.981 2.816h-0.019v2.183c0 1.104 0.896 2 2 2v0 17c0 2.209 1.791 4 4 4h16c2.209 0 4-1.791 4-4v-17c1.104 0 2-0.896 2-2v-2.182h-0.020zM10 3.002c0-0.553 0.447-1 1-1h10c0.553 0 1 0.447 1 1v1h-12v-1zM26 28.002c0 1.102-0.898 2-2 2h-16c-1.103 0-2-0.898-2-2v-17h20v17zM28 8.001v1h-24v-1.999c0-0.553 0.447-1 1-1h22c0.553 0 1 0.447 1 1v0.999zM9 28.006h2c0.553 0 1-0.447 1-1v-13c0-0.553-0.447-1-1-1h-2c-0.553 0-1 0.447-1 1v13c0 0.553 0.447 1 1 1zM9 14.005h2v13h-2v-13zM15 28.006h2c0.553 0 1-0.447 1-1v-13c0-0.553-0.447-1-1-1h-2c-0.553 0-1 0.447-1 1v13c0 0.553 0.447 1 1 1zM15 14.005h2v13h-2v-13zM21 28.006h2c0.553 0 1-0.447 1-1v-13c0-0.553-0.447-1-1-1h-2c-0.553 0-1 0.447-1 1v13c0 0.553 0.447 1 1 1zM21 14.005h2v13h-2v-13z"></path>
</symbol>

    </defs>
</svg>

<svg width="20" height="14" fill="none" xmlns="http://www.w3.org/2000/svg">
  <path d="M1 5.941 7.667 13 19 1" stroke="#000" stroke-linecap="round" stroke-linejoin="round"/>
</svg>