<svg xmlns="http://www.w3.org/2000/svg" width="46" height="46" fill="none"><path fill="#fff" d="M25.733 13.615c.323-.033.655 0 .968.079.927.232 1.556.8 2.033 1.597.38-.04.764-.017 1.136.07a3.137 3.137 0 0 1 1.907 1.377 2.938 2.938 0 0 1 .355 2.287c-.265 1.003-.902 1.525-1.769 2.025.024.616.015 1.235.017 1.85 0 .39.026.796-.012 1.182a.988.988 0 0 1-.134.44.811.811 0 0 1-.403.134c-.397.048-.828.016-1.228.015l-2.36-.009c-.838.062-1.727.004-2.571.004-.562 0-1.195.067-1.75.004-.197-.022-.282-.153-.39-.298-.07-1.105-.01-2.247-.01-3.356-.462-.236-.855-.526-1.177-.933a2.896 2.896 0 0 1-.6-2.165 3.117 3.117 0 0 1 1.226-2.042 3.023 3.023 0 0 1 2.248-.573c.113-.196.225-.392.365-.57.54-.689 1.293-1.01 2.15-1.118Zm.046 1.357c-.527.104-.98.292-1.298.747-.178.255-.34.988-.562 1.1-.293.034-.6-.1-.884-.162-.571-.125-1.216.102-1.57.56-.29.378-.427.898-.35 1.366.07.423.33.778.684 1.02.387.266.818.318 1.085.734.05.963.014 1.943.015 2.908 1.124-.009 2.248-.011 3.372-.007l2.746-.006c0-.49-.106-2.922.122-3.16.108-.113.354-.181.499-.238.654-.254 1.132-.695 1.192-1.42a1.64 1.64 0 0 0-.439-1.267 1.584 1.584 0 0 0-1.117-.524c-.387-.023-1.184.343-1.427.07-.118-.132-.165-.359-.226-.525-.247-.685-.765-1.082-1.493-1.177a2.334 2.334 0 0 0-.35-.019Zm12.922-5.599c.244-.018.536-.014.728.16.18.164.188.426.128.644-.145.528-.608 1.16-.887 1.64-.446.768-.862 1.558-1.296 2.335-.268.48-.592.972-.806 1.475a1.16 1.16 0 0 0-.112.503c.006.152.06.266.177.366.166.142.385.252.61.222.15-.02.27-.098.364-.213.317-.395.506-.945.738-1.392l1.6-3.089c.19-.37.356-.822.622-1.141.14-.17.271-.25.495-.268.178-.015.35.03.487.145a.618.618 0 0 1 .206.563c-.062.396-.415.878-.604 1.24l-1.453 2.849c-.259.514-.563 1.039-.772 1.574-.048.125-.097.264-.079.4.022.158.14.297.267.386.144.1.339.167.515.129.203-.045.345-.191.458-.354.259-.37.43-.856.62-1.265l1.24-2.63c.234-.498.447-1.084.759-1.538.112-.163.232-.293.439-.325.209-.031.42.056.578.187.131.109.23.236.235.41.015.448-.805 2-1.028 2.498l-.88 1.965c-.431.968-.8 1.94-1.527 2.741-.717.79-1.532 1.124-2.516 1.476-.207.075-.526.148-.702.274-.348.248-.59.708-.794 1.07-.157.28-.357.582-.455.887-.145.449-.05 1.821-.05 2.363v6.996l.003 2.139c0 .419.026.857-.02 1.273a.725.725 0 0 1-.191.432c-.34.33-1.596.214-2.078.211l-3.285-.004c.189-.502.423-.996.67-1.474.426-.044.864-.025 1.293-.025l2.12.001v-9.143c-.275.65-.624 1.286-.94 1.919a349.664 349.664 0 0 0-1.668 3.367 298.613 298.613 0 0 1-2.023 4.092c-.286.568-.54 1.166-.866 1.713a1.648 1.648 0 0 1-.513.564c-.3.192-.664.26-1.014.19a1.275 1.275 0 0 1-.825-.577 1.184 1.184 0 0 1-.135-.992c.169-.561.524-1.103.805-1.617l1.336-2.445c1.618-2.962 3.249-5.923 4.814-8.912.37-.704 1.205-2.04 1.406-2.704.219-.722-.241-1.587-.376-2.298a4.2 4.2 0 0 1 .35-2.664c.213-.421.471-.824.71-1.232l1.233-2.13.996-1.727c.197-.34.383-.707.621-1.02a.857.857 0 0 1 .272-.22Z"/><path fill="#fff" d="M16.303 8.093c1.143-.06 2.31-.009 3.456-.008l6.564.003 5.956-.003c.966 0 1.97-.055 2.933.006.197.012.42.067.57.203.13.119.186.328.211.495.051.339.021.71.02 1.053l-.008 1.947c-.477.766-.999 1.511-1.5 2.263.044-.505.014-1.03.014-1.536V9.663c-5.712.005-11.43.057-17.14-.003-.058 2.336-.005 4.687-.005 7.024l.003 12.922 7.697-.003 2.384-.005c.44 0 .91-.031 1.348.024-.163.503-.471 1.008-.711 1.481l-7.935-.017h-2.389c-.544 0-1.111-.025-1.65.054a2.598 2.598 0 0 0-1.265.546c-.444.355-.768.868-.814 1.438-.04.501.158.985.484 1.364.306.355.776.624 1.24.711.679.128 1.687.037 2.401.04l4.855.004c.902 0 1.822-.037 2.722.028-.16.467-.306.973-.397 1.457-.814-.072-1.681-.013-2.502-.013l-4.861-.001c-.847.002-1.81.099-2.635-.078-.58-.124-1.124-.426-1.577-.798-.731-.6-1.191-1.526-1.266-2.456-.042-.52-.012-1.06-.01-1.581l.002-2.533v-8.76l-.002-6.074c-.001-.781-.074-2.155.033-2.893.1-.73.413-1.418.903-1.976a4.25 4.25 0 0 1 2.871-1.472Zm-.452 1.634c-.804.326-1.394.735-1.737 1.55-.118.282-.15.629-.16.932-.05 1.486-.004 2.991-.003 4.48l.002 8.593v3.81c0 .432-.08 1.02.015 1.432l.034.012.054-.035c.606-.448 1.12-.693 1.864-.848-.058-2.124-.007-4.264-.005-6.389.003-2.388-.039-4.782-.012-7.17.016-1.562.02-3.124.01-4.687 0-.376.062-1.356-.01-1.665l-.052-.015Z"/></svg>